# xmcd
#
# Track frame offsets:
#	150
#	20118
#	37271
#	53947
#	71981
#	89543
#	103760
#	122562
#	144246
#	160369
#	174421
#	193318
#
# Disc length: 2777 seconds
#
# Revision: 1
# Processed by: cddbd v1.5.2PL0 Copyright (c) Steve Scherf et al.
# Submitted via: audiograbber 1.82.02
#
DISCID=b60ad70c
DTITLE=Ernie Constance - When The Currawongs Come Down
DYEAR=2000
DGENRE=Country
TTITLE0=Where The Snowey Mountains Rise
TTITLE1=Partners and Males
TTITLE2=I Talk To You
TTITLE3=Monaro Rain
TTITLE4=You Are Everywhere
TTITLE5=Short Cut Sam
TTITLE6=Saddle Up And Ride
TTITLE7=Walk Away
TTITLE8=She Deserves Better
TTITLE9=I Wish I Could Go Back
TTITLE10=Little Blue Eyes
TTITLE11=When The Currawongs Come Down
EXTD=
EXTT0=
EXTT1=
EXTT2=
EXTT3=
EXTT4=
EXTT5=
EXTT6=
EXTT7=
EXTT8=
EXTT9=
EXTT10=
EXTT11=
PLAYORDER=
